<svg width="71" height="41" viewBox="0 0 71 41" fill="none" xmlns="http://www.w3.org/2000/svg">
<path d="M14 28.3901C17.8755 20.8648 24.427 8.67623 28.4871 11.2422C33.5622 14.4498 21.1052 24.319 27.103 28.3901C33.1009 32.4612 38.6373 7.54124 44.0815 11.2422C49.5258 14.9432 38.8219 24.6891 43.0665 28.3901C46.4622 31.3509 52.294 20.954 57 12.9763" stroke="#6500C3" stroke-width="15.8161" stroke-linecap="round"/>
<path d="M34.9417 14.7323C35.6752 14.7323 36.3933 15.2241 36.9446 16.1337C37.4923 17.0374 37.8411 18.3074 37.8411 19.7264C37.841 21.1453 37.4923 22.4146 36.9446 23.3182C36.3933 24.2279 35.6753 24.7196 34.9417 24.7196C34.208 24.7196 33.49 24.2279 32.9387 23.3182C32.391 22.4146 32.0423 21.1453 32.0422 19.7264C32.0422 18.3074 32.391 17.0374 32.9387 16.1337C33.49 15.2241 34.2081 14.7324 34.9417 14.7323Z" fill="white" stroke="#0F172A" stroke-width="0.64436"/>
<path d="M36.0688 16.6653C36.4944 16.6653 36.9302 16.9449 37.2759 17.5032C37.6185 18.0567 37.8413 18.8419 37.8413 19.7258C37.8413 20.6098 37.6185 21.3949 37.2759 21.9485C36.9302 22.5069 36.4944 22.7864 36.0688 22.7864C35.6434 22.7862 35.2084 22.5066 34.8628 21.9485C34.5201 21.3949 34.2974 20.6098 34.2974 19.7258C34.2974 18.8419 34.5201 18.0567 34.8628 17.5032C35.2084 16.9451 35.6435 16.6655 36.0688 16.6653Z" fill="#0F172A" stroke="#0F172A" stroke-width="0.64436"/>
<path d="M43.3184 14.7323C44.052 14.7323 44.77 15.2241 45.3213 16.1337C45.869 17.0374 46.2178 18.3074 46.2178 19.7264C46.2177 21.1453 45.869 22.4146 45.3213 23.3182C44.77 24.2279 44.052 24.7196 43.3184 24.7196C42.5848 24.7196 41.8667 24.2279 41.3154 23.3182C40.7677 22.4146 40.419 21.1453 40.4189 19.7264C40.4189 18.3074 40.7677 17.0374 41.3154 16.1337C41.8667 15.2241 42.5848 14.7324 43.3184 14.7323Z" fill="white" stroke="#0F172A" stroke-width="0.64436"/>
<path d="M44.4456 16.6653C44.8711 16.6653 45.3069 16.9449 45.6526 17.5032C45.9952 18.0567 46.218 18.8419 46.218 19.7258C46.218 20.6098 45.9953 21.3949 45.6526 21.9485C45.3069 22.5069 44.8711 22.7864 44.4456 22.7864C44.0201 22.7862 43.5851 22.5066 43.2395 21.9485C42.8968 21.3949 42.6741 20.6098 42.6741 19.7258C42.6741 18.8419 42.8968 18.0567 43.2395 17.5032C43.5851 16.9451 44.0202 16.6655 44.4456 16.6653Z" fill="#0F172A" stroke="#0F172A" stroke-width="0.64436"/>
</svg>
